HIERARCHY
ROOT Hips
{
	OFFSET -0.001795 -0.223333 0.028219
	CHANNELS 6 Xposition Yposition Zposition Zrotation Yrotation Xrotation 
	JOINT LeftUpLeg
	{
		OFFSET 0.069520 -0.091406 -0.006815
		CHANNELS 3 Zrotation Yrotation Xrotation
		JOINT LeftLeg
		{
			OFFSET 0.034277 -0.375199 -0.004496
			CHANNELS 3 Zrotation Yrotation Xrotation
			JOINT LeftFoot
			{
				OFFSET -0.013596 -0.397961 -0.043693
				CHANNELS 3 Zrotation Yrotation Xrotation
				JOINT LeftToe
				{
					OFFSET 0.026358 -0.055791 0.119288
					CHANNELS 3 Zrotation Yrotation Xrotation
					End Site
					{
						OFFSET 0.000000 0.000000 0.000000
					}
				}
			}
		}
	}
	JOINT RightUpLeg
	{
		OFFSET -0.067670 -0.090522 -0.004320
		CHANNELS 3 Zrotation Yrotation Xrotation
		JOINT RightLeg
		{
			OFFSET -0.038290 -0.382569 -0.008850
			CHANNELS 3 Zrotation Yrotation Xrotation
			JOINT RightFoot
			{
				OFFSET 0.015774 -0.398415 -0.042312
				CHANNELS 3 Zrotation Yrotation Xrotation
				JOINT RightToe
				{
					OFFSET -0.025372 -0.048144 0.123348
					CHANNELS 3 Zrotation Yrotation Xrotation
					End Site
					{
						OFFSET 0.000000 0.000000 0.000000
					}
				}
			}
		}
	}
	JOINT Spine
	{
		OFFSET -0.002533 0.108963 -0.026696
		CHANNELS 3 Zrotation Yrotation Xrotation
		JOINT Spine1
		{
			OFFSET 0.005487 0.135180 0.001092
			CHANNELS 3 Zrotation Yrotation Xrotation
			JOINT Spine2
			{
				OFFSET 0.001457 0.052922 0.025425
				CHANNELS 3 Zrotation Yrotation Xrotation
				JOINT Neck
				{
					OFFSET -0.002778 0.213870 -0.042857
					CHANNELS 3 Zrotation Yrotation Xrotation
					JOINT Head
					{
						OFFSET 0.005152 0.064970 0.051349
						CHANNELS 3 Zrotation Yrotation Xrotation
						End Site
						{
							OFFSET 0.000000 0.000000 0.000000
						}
					}
				}
				JOINT LeftShoulder
				{
					OFFSET 0.078845 0.121749 -0.034090
					CHANNELS 3 Zrotation Yrotation Xrotation
					JOINT LeftArm
					{
						OFFSET 0.090977 0.030469 -0.008868
						CHANNELS 3 Zrotation Yrotation Xrotation
						JOINT LeftForeArm
						{
							OFFSET 0.259612 -0.012772 -0.027456
							CHANNELS 3 Zrotation Yrotation Xrotation
							JOINT LeftHand
							{
								OFFSET 0.249234 0.008986 -0.001171
								CHANNELS 3 Zrotation Yrotation Xrotation
								End Site
								{
									OFFSET 0.000000 0.000000 0.000000
								}
							}
						}
					}
				}
				JOINT RightShoulder
				{
					OFFSET -0.081759 0.118833 -0.038615
					CHANNELS 3 Zrotation Yrotation Xrotation
					JOINT RightArm
					{
						OFFSET -0.096012 0.032551 -0.009143
						CHANNELS 3 Zrotation Yrotation Xrotation
						JOINT RightForeArm
						{
							OFFSET -0.253742 -0.013329 -0.021401
							CHANNELS 3 Zrotation Yrotation Xrotation
							JOINT RightHand
							{
								OFFSET -0.255298 0.007772 -0.005559
								CHANNELS 3 Zrotation Yrotation Xrotation
								End Site
								{
									OFFSET 0.000000 0.000000 0.000000
								}
							}
						}
					}
				}
			}
		}
	}
}
MOTION
Frames: 8
Frame Time: 0.050000
0.006153 0.943706 1.374077 -0.129190 36.460425 -4.465214 2.610653 -1.489334 -14.330469 -5.275283 -0.384665 11.923479 -15.621483 -13.032162 17.370610 0.000000 0.000000 0.000000 -2.170734 -0.547903 2.853238 6.682889 -6.531115 28.664665 0.745401 1.076593 5.592011 0.000000 0.000000 0.000000 -7.140975 -2.301792 28.355561 -9.422443 2.935226 -26.905649 1.382251 23.825506 29.317472 18.833233 -2.276066 -28.244695 0.000000 0.000000 0.000000 -20.337784 -15.426506 -7.840525 -29.416669 5.840967 -2.197698 -31.222329 -54.393011 11.251016 0.000000 0.000000 0.000000 29.621891 -0.031613 14.498132 49.223408 44.575393 9.167941 9.194688 54.406339 12.424611 0.000000 0.000000 0.000000 
0.015134 0.949433 1.399853 -1.322191 35.806688 -6.070239 4.125923 -1.012157 -11.120066 -5.965010 -0.264634 11.570070 -13.833201 -11.709842 15.373188 0.000000 0.000000 0.000000 -5.139578 -0.391132 -3.006724 7.774810 -11.049036 40.352097 4.306632 4.361117 18.702182 0.000000 0.000000 0.000000 -7.661007 -2.208540 28.443094 -9.515230 3.236168 -25.008494 0.886391 22.771387 27.972524 18.003487 -2.227849 -27.561051 0.000000 0.000000 0.000000 -20.614637 -15.844992 -7.064830 -28.241473 4.492241 -1.769926 -28.636344 -55.634648 10.594151 0.000000 0.000000 0.000000 28.891736 1.081307 14.203465 51.305883 42.695092 9.371419 9.664493 52.414673 11.811955 0.000000 0.000000 0.000000 
0.021197 0.954415 1.424275 -2.819836 36.748203 -7.522700 5.116648 -0.806434 -8.937803 -5.676343 -0.247956 10.629669 -13.240923 -9.634646 16.051054 0.000000 0.000000 0.000000 -6.762476 -0.631913 -5.539169 8.939628 -12.521618 41.478973 4.696299 1.947360 28.408356 0.000000 0.000000 0.000000 -7.370600 -2.648496 29.977217 -9.063374 3.167340 -25.148975 0.045165 21.037506 27.346093 16.904951 -1.763045 -27.563562 0.000000 0.000000 0.000000 -21.058669 -15.930906 -6.599638 -26.809822 3.506538 -1.484176 -31.418199 -59.599781 13.470742 0.000000 0.000000 0.000000 28.445986 1.941151 14.010376 52.227889 40.622058 8.793317 9.077283 52.647676 11.479394 0.000000 0.000000 0.000000 
0.025272 0.958675 1.447380 -4.376305 37.239160 -8.634776 6.154398 -0.693523 -6.760778 -5.304965 -0.184578 9.031007 -11.690835 -6.819849 15.904454 0.000000 0.000000 0.000000 -7.182117 -0.732543 -6.314915 9.872143 -11.012475 35.975688 -0.558501 -4.504387 27.181417 0.000000 0.000000 0.000000 -7.097382 -2.780282 29.981729 -8.258169 3.163144 -24.166244 -0.489065 20.169824 26.503681 17.451954 -2.160860 -27.830519 0.000000 0.000000 0.000000 -20.741117 -16.711325 -5.802634 -26.229581 2.278093 -1.203856 -35.553663 -63.900322 17.211602 0.000000 0.000000 0.000000 29.191672 2.317427 14.436405 51.068015 39.825318 7.722199 7.107345 52.773426 10.384100 0.000000 0.000000 0.000000 
0.027666 0.961040 1.468557 -5.409929 37.466687 -8.653800 6.768015 -0.688568 -5.721579 -4.666778 -0.173286 7.973260 -9.896626 -4.474618 14.994467 0.000000 0.000000 0.000000 -7.309295 -0.760612 -6.565095 9.702001 -7.756256 27.132968 -7.498779 -15.051942 14.921816 0.000000 0.000000 0.000000 -6.685425 -2.906411 30.012160 -7.727471 2.980158 -24.842492 -0.301218 18.892223 26.344987 17.625409 -2.512265 -27.535369 0.000000 0.000000 0.000000 -20.924552 -16.739356 -5.568096 -25.758686 1.505142 -1.036223 -39.605424 -67.273999 21.227741 0.000000 0.000000 0.000000 30.220054 1.987552 14.414380 50.314023 38.399550 6.384393 6.341912 52.886744 10.057544 0.000000 0.000000 0.000000 
0.028389 0.961272 1.487564 -5.635115 38.146365 -8.220549 7.347405 -0.714875 -4.698896 -4.560966 -0.114917 6.498969 -9.526576 -4.015130 14.648635 0.000000 0.000000 0.000000 -8.494139 -1.018165 -6.651812 6.882752 -3.937909 17.849490 -8.461745 -16.321719 14.836970 0.000000 0.000000 0.000000 -5.983486 -3.081573 29.969953 -6.732157 2.751838 -25.562881 -0.484616 18.680221 26.846822 18.190969 -3.070227 -26.800272 0.000000 0.000000 0.000000 -20.023490 -16.757046 -5.218309 -25.982880 0.471522 -0.959741 -43.015621 -69.406810 24.112591 0.000000 0.000000 0.000000 31.794095 1.934387 15.310814 47.686430 38.633317 5.104654 2.220014 53.777548 8.067917 0.000000 0.000000 0.000000 
0.027353 0.959118 1.504735 -5.130974 38.056003 -7.401539 7.595087 -0.724503 -3.779487 -4.413526 -0.075215 5.461718 -9.210095 -4.305137 13.693799 0.000000 0.000000 0.000000 -9.255418 -1.170893 -6.955010 4.015273 -1.701448 10.996329 -8.302423 -14.388460 20.689926 0.000000 0.000000 0.000000 -5.102627 -3.201127 29.828808 -7.230416 2.841617 -25.665901 -0.356330 17.781197 25.920747 18.914299 -4.115380 -25.604087 0.000000 0.000000 0.000000 -19.414365 -17.070053 -4.403824 -25.372897 0.037593 -0.947126 -40.699609 -69.618491 22.662808 0.000000 0.000000 0.000000 34.045238 1.106443 15.298179 45.307062 37.914716 3.618169 -0.061790 54.574366 6.864009 0.000000 0.000000 0.000000 
0.024283 0.956437 1.520704 -4.202586 38.806568 -6.674406 7.451500 -0.730342 -3.766712 -4.250898 -0.124782 6.155860 -9.255099 -5.028074 12.871052 0.000000 0.000000 0.000000 -9.597592 -1.256605 -6.690926 3.244446 -1.171393 8.053462 -9.131017 -14.539160 26.451285 0.000000 0.000000 0.000000 -4.548283 -3.476382 30.337802 -6.818422 2.725469 -26.108532 -0.780155 16.515177 25.593534 19.181812 -5.092017 -23.868178 0.000000 0.000000 0.000000 -18.697440 -17.730737 -3.357448 -25.105126 -0.501785 -1.003047 -39.189859 -68.045117 21.062064 0.000000 0.000000 0.000000 34.943000 1.589427 15.682725 44.207075 38.254348 3.321700 -2.525284 54.461799 5.369388 0.000000 0.000000 0.000000 
